<svg xmlns="http://www.w3.org/2000/svg" width="436.947" height="593" viewBox="0 0 436.947 593">
  <g id="rockrt" transform="translate(-447.5 -122.448)">
    <path id="Path_21963" data-name="Path 21963" d="M527.662,226.523A36.412,36.412,0,1,0,491.25,190.11,36.455,36.455,0,0,0,527.662,226.523Zm0-52.018a15.605,15.605,0,1,1-15.605,15.605A15.622,15.622,0,0,1,527.662,174.505Z" transform="translate(138.311 98.794)" fill="#dfdfdf"/>
    <path id="Path_21964" data-name="Path 21964" d="M478.251,370.63a10.405,10.405,0,0,0-5.751,9.3V509.979a10.4,10.4,0,0,0,10.4,10.4h26.009a10.408,10.408,0,0,0,8.656-4.632l22.921-34.382h92.9l22.921,34.382a10.4,10.4,0,0,0,8.656,4.632h26.009a10.4,10.4,0,0,0,10.4-10.4V379.935a10.4,10.4,0,0,0-5.751-9.3L649.36,347.5v-6.575c0-87.922-9.122-150.739-27.107-186.714-15.114-30.228-32.068-31.76-35.313-31.76s-20.2,1.531-35.314,31.76c-17.99,35.975-27.107,98.792-27.107,186.714V347.5Zm25.093,128.945H493.307V386.364l31.211-15.605v97.056Zm41.98-145.649v-13c0-52.966,3.454-91.576,8.21-119.64h66.836c4.8,28.323,8.181,66.969,8.181,119.64v119.64H597.342V353.926a10.4,10.4,0,1,0-20.807,0V460.562H545.325ZM680.57,386.364V499.575H670.533l-21.173-31.76V370.759ZM567.305,169.884c8.951-21.111,17.532-25.618,19.858-26.487.541.345,1.885,1.2,2.131,1.365,3.4,2.264,8.652,7.362,14.349,18.751,4.149,8.3,8.589,20.145,12.555,36.962H557.7A190.243,190.243,0,0,1,567.305,169.884Z" transform="translate(79.035)" fill="#dfdfdf"/>
    <path id="Path_21965" data-name="Path 21965" d="M730.491,313.983h-3.47a62.573,62.573,0,0,0-51.148-51.135v-42.5a10.4,10.4,0,1,0-20.807,0V350.4a10.4,10.4,0,1,0,20.807,0v-66.3a41.688,41.688,0,0,1,31.211,40.295,10.4,10.4,0,0,0,10.4,10.4h13a41.614,41.614,0,1,1,0,83.228H522.421a41.614,41.614,0,0,1,0-83.228h13a10.4,10.4,0,0,0,10.4-10.4,41.688,41.688,0,0,1,31.211-40.295v66.3a10.4,10.4,0,0,0,20.807,0V220.351a10.4,10.4,0,1,0-20.807,0v42.5a62.577,62.577,0,0,0-51.152,51.135h-3.467a62.421,62.421,0,0,0,0,124.842h208.07a62.421,62.421,0,1,0,0-124.842Z" transform="translate(39.518 276.623)" fill="#dfdfdf"/>
    <path id="Path_21966" data-name="Path 21966" d="M529.521,500.743a197.126,197.126,0,0,1-61.214-142.886c0-84.477,53.274-156.735,127.988-184.974q1.03-11.9,2.393-22.884C511.045,178.438,447.5,260.859,447.5,357.857a217.8,217.8,0,0,0,64.652,154.991A73.136,73.136,0,0,1,529.521,500.743Z" transform="translate(0 87.1)" fill="#dfdfdf"/>
    <path id="Path_21967" data-name="Path 21967" d="M646.553,357.857a197.129,197.129,0,0,1-61.219,142.886,73.045,73.045,0,0,1,17.37,12.105A217.807,217.807,0,0,0,667.36,357.857c0-97-63.549-179.419-151.192-207.858q1.367,10.974,2.393,22.884C593.275,201.122,646.553,273.38,646.553,357.857Z" transform="translate(217.087 87.1)" fill="#dfdfdf"/>
  </g>
</svg>
